# xmcd
# 
# Track frame offsets:
#     150
#     1975
#     24270
#     46563
#     72445
#     96938
#     117410
#     147518
#     171643
#     173178
#     198255
#     222613
# 
# Disc length: 3251
# 
# Revision: 39
# Processed by: cddbd v1.5.2PL0 Copyright (c) Steve Scherf et al.
# Submitted via: fre:ac v1.0.17
# 
DISCID=ad0cb10c
DTITLE=Mr.Children - Atomic Heart
DYEAR=1994
DGENRE=JPop
TTITLE0=Ｐｒｉｎｔｉｎｇ
TTITLE1=Ｄａｎｃｅ　Ｄａｎｃｅ　Ｄａｎｃｅ
TTITLE2=ラヴ　コネクション
TTITLE3=Ｉｎｎｏｃｅｎｔ　Ｗｏｒｌｄ
TTITLE4=クラスメイト
TTITLE5=Ｃｒｏｓｓ　Ｒｏａｄ
TTITLE6=ジェラシー
TTITLE7=Ａｓｉａ　（エイジア）
TTITLE8=Ｒａｉｎ
TTITLE9=雨のち晴れ
TTITLE10=Ｒｏｕｎｄ　Ａｂｏｕｔ　〜孤独の肖像〜
TTITLE11=Ｏｖｅｒ
EXTD=YEAR: 1994
EXTT0=
EXTT1=
EXTT2=
EXTT3=
EXTT4=
EXTT5=
EXTT6=
EXTT7=
EXTT8=
EXTT9=
EXTT10=
EXTT11=
PLAYORDER=
